<svg xmlns="http://www.w3.org/2000/svg" width="400" height="400" viewBox="0 0 400 400">
  <defs>
    <style>
      .topo-line { fill: none; stroke: #2D3E50; stroke-width: 1; opacity: 0.3; }
    </style>
  </defs>
  <!-- Topographic contour lines inspired by Central Oregon terrain -->
  <path class="topo-line" d="M0,50 Q100,30 200,50 T400,50"/>
  <path class="topo-line" d="M0,80 Q80,60 160,80 Q240,100 320,80 T400,80"/>
  <path class="topo-line" d="M0,110 Q120,90 200,120 Q280,150 400,110"/>
  <path class="topo-line" d="M0,150 Q50,130 100,150 Q200,180 300,150 T400,150"/>
  <path class="topo-line" d="M0,190 Q100,170 200,200 Q300,230 400,190"/>
  <path class="topo-line" d="M0,230 Q80,210 160,240 Q240,270 320,230 T400,230"/>
  <path class="topo-line" d="M0,270 Q100,250 200,280 T400,270"/>
  <path class="topo-line" d="M0,310 Q60,290 120,310 Q200,340 280,310 T400,310"/>
  <path class="topo-line" d="M0,350 Q100,330 200,360 Q300,390 400,350"/>
  <path class="topo-line" d="M0,390 Q80,370 160,400"/>
  <!-- Circular contours (volcanic influence) -->
  <circle class="topo-line" cx="300" cy="100" r="40"/>
  <circle class="topo-line" cx="300" cy="100" r="60"/>
  <circle class="topo-line" cx="300" cy="100" r="80"/>
  <circle class="topo-line" cx="100" cy="300" r="30"/>
  <circle class="topo-line" cx="100" cy="300" r="50"/>
  <circle class="topo-line" cx="100" cy="300" r="70"/>
</svg>
